C:\Users\mayra\OneDrive - Universitat Pompeu Fabra\PhD_Mayra\OpenSim\aurel\ID_04_Walking_14.mot
version=1
nRows=37
nColumns=19
inDegrees=yes

BTS OpenSim export

endheader
time	r.gr_force_vx	r.gr_force_vy	r.gr_force_vz	r.gr_force_px	r.gr_force_py	r.gr_force_pz	l.gr_force_vx	l.gr_force_vy	l.gr_force_vz	l.gr_force_px	l.gr_force_py	l.gr_force_pz	r.gr_torque_x	r.gr_torque_y	r.gr_torque_z	l.gr_torque_x	l.gr_torque_y	l.gr_torque_z
5.756000	0.38315478	0.87785351	-0.30052775	0.07975960	-0.00242001	0.10775344	-0.30395076	0.34279457	0.58077747	0.97859442	0.00241152	0.41294089	0.00071356	-0.12959711	-0.00004987	-0.00046895	0.08517159	0.00003278
5.760000	0.38467127	0.60242522	-0.30063376	0.10271135	-0.00236099	0.28277329	-0.84420031	0.60160583	1.11811054	1.03748536	0.00273485	0.41533995	-0.00043847	0.07963463	0.00003065	-0.00139442	0.25325498	0.00009746
5.764000	0.38462743	0.61038697	-0.30063069	0.33159533	-0.00104643	0.14158942	-0.84275782	0.33962116	1.11800969	0.94342285	0.00220437	0.44800964	-0.00036090	0.06554744	0.00002523	-0.00096672	0.17557532	0.00006757
5.768000	0.38315478	0.87785351	-0.30052775	0.07975960	-0.00242001	0.10775344	-0.84130436	0.07564203	1.11790812	0.22948265	-0.00223471	1.76836801	-0.00085036	0.15444347	0.00005944	-0.00268535	0.48771447	0.00018769
5.772000	0.92481929	0.33987314	-0.83796847	-0.22377574	-0.00411758	0.17610493	-0.84563053	0.86135542	1.11821055	0.75677729	0.00123253	0.30293640	-0.00253910	0.46115130	0.00017747	0.00085375	-0.15505777	-0.00005967
5.776000	0.92189997	0.87007874	-0.83776444	0.25651070	-0.00148064	0.19561696	-0.84275782	0.33962116	1.11800969	0.94342285	0.00220437	0.44800964	-0.00022323	0.04054353	0.00001560	-0.00096672	0.17557532	0.00006757
5.780000	-0.15559195	0.86373258	0.23670030	0.22847268	-0.00164577	0.22357623	-0.30611554	0.86872071	0.04301643	0.93042678	0.00223741	0.17619674	0.00008905	-0.01617347	-0.00000622	0.00095823	-0.17403485	-0.00006698
5.784000	0.92337948	0.60136861	-0.83786780	0.59238428	0.00039638	0.12364519	-0.84564286	0.86359859	1.11821139	0.91691232	0.00211440	0.30248481	0.00095946	-0.17425774	-0.00006706	-0.00012980	0.02357373	0.00000907
5.788000	0.92195070	0.86086512	-0.83776796	0.09492725	-0.00236950	0.19350706	-0.30611211	0.60258180	1.11884081	0.83007610	0.00159291	0.41519988	-0.00097963	0.17792137	0.00006847	0.00098285	-0.17850479	-0.00006870
5.792000	0.92410940	0.60157973	-1.37595320	0.59241182	0.00040435	0.10332996	-0.30611211	0.60258180	1.11884081	0.83007610	0.00159291	0.41519988	0.00095311	-0.17310436	-0.00006662	0.00098285	-0.17850479	-0.00006870
5.796000	0.92342329	0.59341496	-0.83787090	0.36228865	-0.00092589	0.26751027	-0.84274685	0.33762673	1.11800897	0.54156512	-0.00000822	0.44790569	0.00063170	-0.11472938	-0.00004415	0.00150721	-0.27373967	-0.00010535
5.800000	0.92848486	-0.19309856	-1.37625909	0.46098667	-0.00039605	0.30281299	-0.84418941	0.59961945	1.11810982	0.81005460	0.00148268	0.41517270	0.00097587	-0.17723803	-0.00006821	0.00000620	-0.00112529	-0.00000043
5.804000	0.92490286	0.32469636	-0.83797431	1.07825661	0.00304463	0.19368356	-1.38083506	0.33665878	1.11727870	0.90829897	0.00201099	0.44796193	0.00355890	-0.64636779	-0.00024875	-0.00097531	0.17713669	0.00006817
5.808000	0.92634261	0.06320935	-0.83807492	-1.44696367	-0.01109802	0.81423813	-0.84275782	0.33962116	1.11800969	0.94342285	0.00220437	0.44800964	-0.00492769	0.89496869	0.00034442	-0.00096672	0.17557532	0.00006757
5.812000	0.92567998	0.05080680	-0.30011630	1.22010565	0.00340369	1.29015243	-0.30468056	0.34258354	1.11874080	0.97854680	0.00239774	0.44805738	0.00628277	-1.14107800	-0.00043913	0.00001363	-0.00247555	-0.00000095
5.816000	0.39132994	-0.47417954	-0.83901149	0.23724008	-0.00163026	0.30871308	0.23111944	0.86973369	0.58170998	0.94480217	0.00227331	0.28858855	0.00044968	-0.08167025	-0.00003143	0.00116256	-0.21114533	-0.00008126
5.820000	0.92196709	0.85788763	-0.83776909	0.42353263	-0.00056194	0.19802463	-0.84131533	0.07762844	1.11790884	0.25328672	-0.00168776	0.68770719	0.00055978	-0.10166816	-0.00003913	0.00217134	-0.39435998	-0.00015177
5.824000	0.92702526	-0.19352071	-0.30021033	0.46115193	-0.00034825	0.18098843	-0.84133857	0.08185807	1.11791050	3.46685171	0.01601359	0.66823268	-0.00062614	0.11371908	0.00004376	-0.01751805	3.18163490	0.00122442
5.828000	0.39127925	-0.46497402	-0.83900791	-0.05884254	-0.00325986	0.30708212	-0.30756557	0.86656100	1.11894238	0.93084937	0.00219113	0.30250373	-0.00092130	0.16732611	0.00006439	0.00055006	-0.09990141	-0.00003845
5.832000	-0.15046345	0.06503602	-0.30157048	0.48932108	0.00001982	-0.37242997	-0.84128863	0.33829761	0.04208240	0.94475794	0.00214239	0.62815213	0.00003443	-0.00625230	-0.00000241	-0.00152541	0.27704629	0.00010662
5.836000	0.92854863	-0.47019300	-0.30031681	0.21122512	-0.00169340	0.10058032	-0.84130567	0.07588279	1.11790824	0.24365342	-0.00215161	1.75517356	0.00011484	-0.02085765	-0.00000803	-0.00271149	0.49246094	0.00018952
5.840000	0.39048240	-0.45299354	-0.30103993	0.24551228	-0.00157674	0.28798792	-0.83987415	-0.18411550	1.11780810	0.80936515	0.00173633	-0.25379100	-0.00019077	0.03464771	0.00001333	0.00310759	-0.56440085	-0.00021720
5.844000	0.92782211	-0.20550115	-0.83817834	-0.22579873	-0.00414926	0.22948803	-0.30179685	-0.18115313	1.11853921	0.74175179	0.00136408	-0.25388286	-0.00227606	0.41337869	0.00015909	0.00264228	-0.47989175	-0.00018468
5.848000	0.92927837	-0.46998194	-0.83828014	0.21119058	-0.00170339	0.12604061	-0.30756557	0.86656100	1.11894238	0.93084937	0.00219113	0.30250373	-0.00078736	0.14299989	0.00005503	0.00055006	-0.09990141	-0.00003845
5.852000	0.92635906	0.06022366	-0.83807606	3.58096457	0.01654566	0.91831046	-0.83987415	-0.18411550	1.11780810	0.80936515	0.00173633	-0.25379100	0.01880496	-3.41536355	-0.00131437	0.00310759	-0.56440085	-0.00021720
5.856000	0.38466701	0.58102787	-0.30064216	0.10420394	-0.00235418	0.28642091	-0.84131533	0.07762844	1.11790884	0.25328672	-0.00168776	0.68770719	0.00016403	-0.02979104	-0.00001146	0.00217134	-0.39435998	-0.00015177
5.860000	0.38826531	0.06024698	-0.83880597	-1.65647519	-0.01225148	0.81395346	-0.83987415	-0.18411550	1.11780810	0.80936515	0.00173633	-0.25379100	-0.00818733	1.48698545	0.00057225	0.00310759	-0.56440085	-0.00021720
5.864000	0.38609585	0.32152295	-0.30074203	1.04028583	0.00282100	0.23154330	-0.84130567	0.07588279	1.11790824	0.24365342	-0.00215161	1.75517356	0.00159751	-0.29014072	-0.00011166	-0.00271149	0.49246094	0.00018952
5.868000	0.92561609	0.32790118	-1.37593651	0.19993570	-0.00177234	0.14417320	-0.83987415	-0.18411550	1.11780810	0.80936515	0.00173633	-0.25379100	-0.00024806	0.04505232	0.00001734	0.00310759	-0.56440085	-0.00021720
5.872000	0.92782211	-0.20550115	-0.83817834	-0.22579873	-0.00414926	0.22948803	-0.84059781	0.08007469	0.57994646	1.90471721	0.00746551	0.53045714	-0.00227606	0.41337869	0.00015909	-0.00349846	0.63539106	0.00024452
5.876000	0.92196709	0.85788763	-0.83776909	0.42353263	-0.00056194	0.19802463	-0.30552763	0.60701382	0.58087897	1.05955303	0.00291924	0.25192982	0.00055978	-0.10166816	-0.00003913	0.00013225	-0.02401988	-0.00000924
5.880000	0.92488635	0.32769012	-0.83797312	0.19988477	-0.00178707	0.18173228	-0.83843166	-0.44610021	1.11770737	1.01838374	0.00274404	0.11815110	-0.00055538	0.10086797	0.00003882	0.00009907	-0.01799254	-0.00000692
5.884000	-0.15119317	0.06482498	0.23639284	0.48907134	-0.00005240	-0.18832880	-0.84275913	0.33986193	1.11800981	0.94624996	0.00222077	0.44583493	0.00009197	-0.01670452	-0.00000643	-0.00097405	0.17690703	0.00006808
5.888000	-0.14967345	0.05429959	-0.83953804	3.13916111	0.01411332	0.91771019	-0.30697015	0.86900657	0.58097976	1.09014344	0.00307373	0.28815845	0.01257634	-2.28411841	-0.00087902	-0.00002582	0.00468967	0.00000180
5.892000	0.92048764	1.12658989	-0.83766568	0.20497501	-0.00177982	0.23570225	-0.84274685	0.33762673	1.11800897	0.54156512	-0.00000822	0.44790569	-0.00025652	0.04659001	0.00001793	0.00150721	-0.27373967	-0.00010535
5.896000	0.92349046	0.58121532	-0.83787560	0.61181056	0.00044602	0.27260035	-0.84130567	0.07588279	1.11790824	0.24365342	-0.00215161	1.75517356	0.00180910	-0.32856974	-0.00012645	-0.00271149	0.49246094	0.00018952
5.900000	0.92049456	1.12533784	-0.83766615	0.20468399	-0.00175155	0.15809171	-0.83986318	-0.18610191	1.11780739	1.57148612	0.00592952	-0.24589066	-0.00065385	0.11875255	0.00004570	-0.00161986	0.29419982	0.00011322
